<?xml version="1.0" ?><svg viewBox="0 0 60 60" xmlns="http://www.w3.org/2000/svg"><defs><style>.a{fill:#4f5564;}.b{fill:#f0f0f0;}.c{fill:#dcdcdc;}.d{fill:#77d95c;}.e{fill:none;stroke:#b2e3a4;stroke-linecap:round;stroke-miterlimit:10;}.f{fill:#19243a;}</style></defs><title/><path class="a" d="M60,30a29.80888,29.80888,0,0,1-1.23,8.5c-.09009.34-.2.67-.32007,1A29.96633,29.96633,0,0,1,40.5,58.1a3.61228,3.61228,0,0,1-.35.13c-.21008.08-.43005.16-.65.22l-.35.12a28.72389,28.72389,0,0,1-6.65,1.32,1.98628,1.98628,0,0,1-.35.03c-.21008.02-.43005.03-.65.04-.11.01-.23.01-.35.01-.38.02-.76.03-1.15.03a29.30842,29.30842,0,0,1-5.5-.51c-.12-.02-.24-.04-.35-.07a4.68608,4.68608,0,0,1-.65-.14,1.4756,1.4756,0,0,1-.35-.08A29.96137,29.96137,0,0,1,1.55,39.5c-.12012-.33-.23-.66-.32007-1a29.32328,29.32328,0,0,1-1.22-8C0,30.34,0,30.17,0,30s0-.34.01-.5a29.32256,29.32256,0,0,1,1.22-8c.09009-.34.2-.67.32007-1A29.98009,29.98009,0,0,1,49.15,6.92c.02991.03.06995.05.1.08a2.62755,2.62755,0,0,1,.25.22c.22.18.43994.37.65.56.12.11.24.22.35.33A29.86951,29.86951,0,0,1,60,30Z"/><path class="b" d="M51,30a10.01269,10.01269,0,0,1-9.3,9.98c-.23.01-.46.02-.7.02H19a10,10,0,0,1,0-20H41A10.00362,10.00362,0,0,1,51,30Z"/><path class="c" d="M41.7,39.98c-.23.01-.46.02-.7.02H19a9.96864,9.96864,0,0,1-3.29-.56L12.54,36.27,25.27,23.54Z"/><circle class="d" cx="19" cy="30" r="9"/><line class="e" x1="15.5" x2="22.5" y1="27.5" y2="27.5"/><line class="e" x1="15.5" x2="22.5" y1="30" y2="30"/><line class="e" x1="15.5" x2="22.5" y1="32.5" y2="32.5"/><path class="f" d="M35.15918,33.54736h-.04883a3.20375,3.20375,0,0,1-3.2002-3.2002v-.69482a3.22421,3.22421,0,0,1,6.44824,0l.001.69434A3.20385,3.20385,0,0,1,35.15918,33.54736Zm0-6.09473a2.21362,2.21362,0,0,0-2.249,2.19971v.69482a2.20276,2.20276,0,0,0,2.2002,2.2002h.04883a2.20276,2.20276,0,0,0,2.2002-2.2002l-.001-.69434A2.20193,2.20193,0,0,0,35.15918,27.45264Z"/><polygon class="f" points="44.25 26.481 44.25 31.776 40.542 26.48 39.542 26.48 39.542 33.519 40.542 33.519 40.542 28.224 44.25 33.52 45.25 33.52 45.25 26.481 44.25 26.481"/></svg>